<?xml version="1.0" encoding="utf-8"?>
<!-- Generator: Adobe Illustrator 25.2.1, SVG Export Plug-In . SVG Version: 6.00 Build 0)  -->
<svg version="1.1" id="圖層_1" xmlns="http://www.w3.org/2000/svg" xmlns:xlink="http://www.w3.org/1999/xlink" x="0px" y="0px"
	 viewBox="0 0 56.7 56.7" style="enable-background:new 0 0 56.7 56.7;" xml:space="preserve">
<style type="text/css">
	.st0{fill:#CCCCCC;}
	.st1{fill:#FFFFFF;}
</style>
<g id="圖層_1_1_">
	<circle class="st0" cx="28.3" cy="28.3" r="28.3"/>
</g>
<g id="圖層_2_1_">
	<path class="st1" d="M42.1,14.6c-0.6-0.6-1.4-0.6-2,0l-4.7,4.7c-2.1-1.1-4.9-0.8-6.6,0.8l-8.6,8.6c-1.1,1-1.7,2.4-1.7,3.9
		c0,1,0.3,2,0.7,2.8l-4.7,4.7c-0.6,0.6-0.6,1.4,0,2c0.3,0.3,1,0.7,2,0l4.8-4.7c0.8,0.4,1.8,0.7,2.8,0.7c1.4,0,2.8-0.6,3.9-1.7
		l8.6-8.6c1-1,1.6-2.4,1.6-3.9c0-1-0.3-2-0.7-2.8l4.7-4.7C42.6,16,42.6,15.2,42.1,14.6z M35.5,23.9c0,0.7-0.3,1.4-0.8,2L26,34.5
		c-0.7,0.7-1.7,0.8-2.5,0.7l3.1-3.1c0.6-0.6,0.6-1.4,0-2s-1.4-0.6-2,0l-3.1,3.1c-0.1-0.1-0.1-0.4-0.1-0.6c0-0.7,0.3-1.4,0.8-2
		l8.6-8.6c0.6-0.6,1.3-0.8,2-0.8c0.3,0,0.4,0,0.7,0.1l-3.1,3.1c-0.6,0.6-0.6,1.4,0,2c0.3,0.3,1,0.7,2,0l3.1-3.1
		C35.5,23.5,35.5,23.8,35.5,23.9z"/>
</g>
</svg>
