<?xml version="1.0" encoding="utf-8"?>
<!-- Generator: Adobe Illustrator 25.2.3, SVG Export Plug-In . SVG Version: 6.00 Build 0)  -->
<svg version="1.1" id="圖層_1" xmlns="http://www.w3.org/2000/svg" xmlns:xlink="http://www.w3.org/1999/xlink" x="0px" y="0px"
	 viewBox="0 0 250 50" style="enable-background:new 0 0 250 50;" xml:space="preserve">
<style type="text/css">
	.st0{fill:#FFFFFF;}
	.st1{fill:#BD050D;}
	.st2{fill:#324997;}
	.st3{enable-background:new    ;}
</style>
<path class="st0" d="M52,105l-0.5,0.1L52,105c-0.7-2.2-1.9-3.8-3.9-4.9l-0.1-0.1h-0.2c-0.9-0.4-2-0.6-3.1-0.6c1-3.2-0.1-6.8-2.7-8.8
	c-1.4-1.1-3.1-1.7-4.7-1.7c-1.4,0-2.8,0.4-4,1.1c-0.9-2.4-2.9-4.1-5.4-4.7l-0.3-0.1l-0.2,0C27.2,85,26.8,85,26.6,85h-0.9
	c-1.1,0-2.2,0.4-3,0.8c-1.9,0.9-3.1,2.5-3.8,4.6c-1.3-1-2.9-1.5-4.5-1.5c-1.8,0-3.4,0.6-4.7,1.7c-2.6,2-3.6,5.6-2.7,8.8
	c-0.9,0-1.7,0.2-2.6,0.6H4.2L4.1,100c-1.8,1-3.2,2.7-3.8,4.8l0,0.1c-0.1,0.3-0.3,0.8-0.3,1.5v0.8c0,0.6,0.1,1.2,0.3,1.9
	c0.6,1.8,1.8,3.2,3.8,4.6l0.6,0.4h4.4c0.2,1,0.6,1.8,1.1,2.7c1.4,2.2,3.3,3.9,5.4,5.3v12.9h20.9V122c2.3-1.4,4-3.1,5.4-5.2
	c0.6-1,1-1.8,1.1-2.7h4.4l0.6-0.4c1.9-1.2,3.2-2.7,3.8-4.5c0.2-0.6,0.3-1.3,0.3-2l0-0.7C52.3,105.9,52.1,105.4,52,105z"/>
<g>
	<g>
		<g>
			<path class="st1" d="M26.6,87.4c0.2,0,0.5,0.1,0.8,0.1c1.9,0.5,3.2,1.8,3.8,3.6c0.2,0.5,0.3,1.1,0.3,1.5c0,0.2,0,0.5-0.1,0.7
				c-1.8,5.4-3.8,10.7-5.6,16c0,0.1,0,0.1-0.1,0.2c-0.2-0.6-0.4-1.4-0.5-2c-1.4-4.7-2.7-9.6-4.1-14.3c-0.1-0.4,0-0.8,0-1.3
				c0.3-1.8,1.2-3.2,2.8-4c0.5-0.3,1.2-0.5,1.8-0.5h0.1C26.1,87.4,26.3,87.4,26.6,87.4z"/>
		</g>
		<g>
			<path class="st1" d="M2.5,106.4c0-0.2,0.1-0.5,0.2-0.7c0.4-1.5,1.3-2.7,2.7-3.5c1.1-0.5,2.2-0.6,3.2-0.3c0.1,0,0.1,0,0.2,0.1
				c4.9,3,9.7,6.2,14.5,9.4c0,0,0.1,0,0.1,0.1c-0.1,0-0.1,0-0.2,0c-5.8,0-11.7,0-17.5,0c-0.1,0-0.2,0-0.2,0
				c-1.3-0.8-2.3-1.8-2.8-3.2c-0.1-0.3-0.2-0.7-0.2-1.1C2.5,106.8,2.5,106.6,2.5,106.4z"/>
		</g>
		<g>
			<path class="st1" d="M49.8,107.2c0,0.4-0.1,0.8-0.2,1.1c-0.5,1.4-1.5,2.4-2.8,3.2c0,0-0.1,0-0.2,0c-5.8,0-11.7,0-17.5,0
				c-0.1,0-0.1,0-0.2,0c0-0.1,0.1-0.1,0.1-0.1c4.8-3.2,9.6-6.4,14.5-9.4c0.1-0.1,0.1-0.1,0.2-0.1c1-0.3,2.1-0.2,3.2,0.3
				c1.4,0.8,2.3,2,2.7,3.5c0.1,0.2,0.2,0.5,0.2,0.7C49.8,106.6,49.8,106.8,49.8,107.2z"/>
		</g>
		<g>
			<path class="st1" d="M23.9,109.9c-0.1,0-0.1-0.1-0.2-0.1c-4.4-3.2-9-6.4-13.4-9.6c-0.1-0.1-0.2-0.2-0.3-0.3
				c-1.5-2.4-1-5.8,1.2-7.5c2.3-1.8,5.4-1.4,7.2,0.8c0.2,0.2,0.3,0.5,0.4,0.7c1.6,5.3,3.3,10.4,5,15.7
				C23.8,109.8,23.8,109.8,23.9,109.9z"/>
		</g>
		<g>
			<path class="st1" d="M28,109.6c1.7-5.3,3.4-10.4,5-15.7c0.1-0.2,0.2-0.5,0.4-0.7c1.8-2.2,4.9-2.6,7.2-0.8
				c2.2,1.7,2.7,5.1,1.2,7.5c-0.1,0.1-0.2,0.2-0.3,0.3c-4.4,3.2-9,6.4-13.4,9.6c-0.1,0-0.1,0.1-0.2,0.1C28,109.8,28,109.8,28,109.6z
				"/>
		</g>
	</g>
	<g>
		<g>
			<g>
				<path class="st2" d="M27.4,132.2c0-4.9,0-9.9,0-14.9c0-0.1,0.1-0.2,0.3-0.2c2.7-0.9,4.7-2.3,6.2-4.2c0-0.1,0.1-0.1,0.3-0.1
					c0.8,0,1.4,0,2.1,0c0.1,0,0.1,0,0.3,0v0.1c-0.3,0.8-0.8,1.4-1.3,2.1c-1.4,1.5-3.1,2.8-5.2,3.9c-0.1,0.1-0.3,0.2-0.3,0.4
					c0,4.3,0,8.6,0,12.9c0,0,0,0.1,0,0.2c-0.8,0-1.4,0-2.2,0C27.4,132.3,27.4,132.2,27.4,132.2z"/>
			</g>
			<g>
				<path class="st2" d="M31.9,132.1c0-2.1,0-4.2,0-6.4c0-2,0-4.1,0-6.1c0-0.1,0.1-0.2,0.3-0.3c0.4-0.2,0.8-0.4,1.2-0.7
					c2.1-1.4,3.7-3,4.6-4.9c0.1-0.4,0.3-0.7,0.4-1.1c0.8,0,1.6,0,2.4,0v0.1c0,0.1,0,0.1,0,0.2c-0.1,0.9-0.4,1.6-0.9,2.4
					c-1.3,2-3.1,3.7-5.5,5c-0.3,0.1-0.3,0.2-0.3,0.4c0,3.9,0,7.6,0,11.4c0,0,0,0.1,0,0.2c-0.8,0-1.4,0-2.2,0
					C31.8,132.3,31.8,132.2,31.9,132.1z"/>
			</g>
		</g>
		<g>
			<g>
				<path class="st2" d="M24.7,132.4c-0.8,0-1.4,0-2.2,0c0-0.1,0-0.2,0-0.2c0-4.3,0-8.6,0-12.9c0-0.2-0.2-0.3-0.3-0.4
					c-2.1-1.1-3.8-2.4-5.2-3.9c-0.5-0.7-1-1.3-1.3-2.1v-0.1c0.2,0,0.2,0,0.3,0c0.7,0,1.3,0,2.1,0c0.2,0,0.3,0,0.3,0.1
					c1.5,1.9,3.5,3.3,6.2,4.2c0.2,0,0.3,0.1,0.3,0.2c0,5,0,10,0,14.9C24.9,132.2,24.9,132.3,24.7,132.4z"/>
			</g>
			<g>
				<path class="st2" d="M20.4,132.3c-0.8,0-1.4,0-2.2,0c0-0.1,0-0.2,0-0.2c0-3.8,0-7.5,0-11.4c0-0.2,0-0.3-0.3-0.4
					c-2.4-1.3-4.2-3-5.5-5c-0.5-0.8-0.8-1.5-0.9-2.4c0-0.1,0-0.1,0-0.2v-0.1c0.8,0,1.6,0,2.4,0c0.1,0.4,0.3,0.7,0.4,1.1
					c0.9,1.9,2.5,3.5,4.6,4.9c0.4,0.3,0.8,0.5,1.2,0.7c0.2,0.1,0.3,0.2,0.3,0.3c0,2,0,4.1,0,6.1c0,2.2,0,4.3,0,6.4
					C20.5,132.2,20.5,132.3,20.4,132.3z"/>
			</g>
		</g>
	</g>
</g>
<text transform="matrix(1 0 0 1 61.1005 119.8643)" class="st0" style="font-family:'NotoSansCJKtc-Medium-B5pc-H'; font-size:23.4px;">經濟部中小企業處</text>
<g>
	<path class="st0" d="M52.1,20.3l-0.5,0.1L52.1,20.3c-0.6-2.1-1.9-3.7-3.7-4.7l-0.1-0.1h-0.2c-0.9-0.4-2-0.6-2.9-0.6
		c0.9-3.1-0.1-6.5-2.6-8.5c-1.4-1.1-2.9-1.6-4.5-1.6c-1.3,0-2.7,0.4-3.8,1.1c-0.9-2.3-2.7-4-5.1-4.5l-0.3-0.1l-0.2,0
		C28.5,1,28.1,1,27.9,1H27c-1.1,0-2.1,0.4-2.9,0.7c-1.8,0.9-3,2.4-3.6,4.4c-1.3-0.9-2.8-1.5-4.3-1.5c-1.7,0-3.2,0.6-4.5,1.6
		c-2.4,1.9-3.5,5.4-2.6,8.5c-0.8,0-1.6,0.2-2.5,0.6H6.5l-0.1,0.1c-1.8,1-3,2.6-3.7,4.6l0,0.1c-0.1,0.3-0.3,0.8-0.3,1.4v0.8
		c0,0.5,0.1,1.2,0.3,1.8c0.6,1.7,1.7,3.1,3.6,4.4L7,28.9h4.2c0.2,1,0.5,1.7,1,2.6c1.4,2.1,3.1,3.8,5.2,5.1V49h19.9V36.6
		c2.1-1.4,3.8-3,5.2-5c0.6-1,0.9-1.8,1.1-2.6h4.2l0.6-0.4c1.8-1.1,3-2.6,3.6-4.3c0.2-0.6,0.3-1.3,0.3-1.9l0-0.7
		C52.4,21.2,52.2,20.6,52.1,20.3z"/>
	<g>
		<g>
			<g>
				<path class="st1" d="M27.9,3.3c0.2,0,0.5,0.1,0.8,0.1c1.8,0.5,3.1,1.7,3.6,3.5c0.2,0.5,0.3,1.1,0.3,1.4c0,0.2,0,0.5-0.1,0.7
					c-1.7,5.2-3.6,10.3-5.3,15.4c0,0.1,0,0.1-0.1,0.2c-0.2-0.6-0.4-1.3-0.5-1.9c-1.3-4.5-2.6-9.3-3.9-13.8c-0.1-0.4,0-0.8,0-1.3
					c0.3-1.7,1.1-3.1,2.7-3.9c0.5-0.3,1.1-0.5,1.7-0.5h0.1C27.4,3.3,27.6,3.3,27.9,3.3z"/>
			</g>
			<g>
				<path class="st1" d="M4.9,21.6c0-0.2,0.1-0.5,0.2-0.7c0.4-1.4,1.2-2.6,2.6-3.4c1-0.5,2.1-0.6,3.1-0.3c0.1,0,0.1,0,0.2,0.1
					c4.7,2.9,9.3,6,13.8,9.1c0,0,0.1,0,0.1,0.1c-0.1,0-0.1,0-0.2,0c-5.5,0-11.2,0-16.7,0c-0.1,0-0.2,0-0.2,0
					c-1.2-0.8-2.2-1.7-2.7-3.1c-0.1-0.3-0.2-0.7-0.2-1.1C4.9,22,4.9,21.8,4.9,21.6z"/>
			</g>
			<g>
				<path class="st1" d="M50,22.4c0,0.4-0.1,0.8-0.2,1.1c-0.5,1.3-1.4,2.3-2.7,3.1c0,0-0.1,0-0.2,0c-5.5,0-11.2,0-16.7,0
					c-0.1,0-0.1,0-0.2,0c0-0.1,0.1-0.1,0.1-0.1c4.6-3.1,9.2-6.2,13.8-9.1c0.1-0.1,0.1-0.1,0.2-0.1c1-0.3,2-0.2,3.1,0.3
					c1.3,0.8,2.2,1.9,2.6,3.4c0.1,0.2,0.2,0.5,0.2,0.7C50,21.8,50,22,50,22.4z"/>
			</g>
			<g>
				<path class="st1" d="M25.3,25c-0.1,0-0.1-0.1-0.2-0.1c-4.2-3.1-8.6-6.2-12.8-9.3c-0.1-0.1-0.2-0.2-0.3-0.3
					c-1.4-2.3-1-5.6,1.1-7.2c2.2-1.7,5.2-1.3,6.9,0.8c0.2,0.2,0.3,0.5,0.4,0.7c1.5,5.1,3.1,10,4.8,15.1C25.2,24.9,25.2,24.9,25.3,25
					z"/>
			</g>
			<g>
				<path class="st1" d="M29.2,24.7c1.6-5.1,3.2-10,4.8-15.1c0.1-0.2,0.2-0.5,0.4-0.7c1.7-2.1,4.7-2.5,6.9-0.8
					c2.1,1.6,2.6,4.9,1.1,7.2c-0.1,0.1-0.2,0.2-0.3,0.3c-4.2,3.1-8.6,6.2-12.8,9.3c-0.1,0-0.1,0.1-0.2,0.1
					C29.2,24.9,29.2,24.9,29.2,24.7z"/>
			</g>
		</g>
		<g>
			<g>
				<g>
					<path class="st2" d="M28.6,46.5c0-4.7,0-9.5,0-14.4c0-0.1,0.1-0.2,0.3-0.2c2.6-0.9,4.5-2.2,5.9-4c0-0.1,0.1-0.1,0.3-0.1
						c0.8,0,1.3,0,2,0c0.1,0,0.1,0,0.3,0v0.1c-0.3,0.8-0.8,1.3-1.2,2c-1.3,1.4-3,2.7-5,3.8c-0.1,0.1-0.3,0.2-0.3,0.4
						c0,4.1,0,8.3,0,12.4c0,0,0,0.1,0,0.2c-0.8,0-1.3,0-2.1,0C28.6,46.6,28.6,46.5,28.6,46.5z"/>
				</g>
				<g>
					<path class="st2" d="M32.9,46.4c0-2,0-4,0-6.2c0-1.9,0-4,0-5.9c0-0.1,0.1-0.2,0.3-0.3c0.4-0.2,0.8-0.4,1.1-0.7
						c2-1.3,3.5-2.9,4.4-4.7c0.1-0.4,0.3-0.7,0.4-1.1c0.8,0,1.5,0,2.3,0v0.1c0,0.1,0,0.1,0,0.2c-0.1,0.9-0.4,1.5-0.9,2.3
						c-1.2,1.9-3,3.6-5.2,4.8C35,35.1,35,35.2,35,35.4c0,3.8,0,7.3,0,11c0,0,0,0.1,0,0.2c-0.8,0-1.3,0-2.1,0
						C32.8,46.6,32.8,46.5,32.9,46.4z"/>
				</g>
			</g>
			<g>
				<g>
					<path class="st2" d="M26.1,46.7c-0.8,0-1.3,0-2.1,0c0-0.1,0-0.2,0-0.2c0-4.1,0-8.3,0-12.4c0-0.2-0.2-0.3-0.3-0.4
						c-2-1.1-3.6-2.3-5-3.8c-0.5-0.7-1-1.3-1.2-2v-0.1c0.2,0,0.2,0,0.3,0c0.7,0,1.2,0,2,0c0.2,0,0.3,0,0.3,0.1
						c1.4,1.8,3.3,3.2,5.9,4c0.2,0,0.3,0.1,0.3,0.2c0,4.8,0,9.6,0,14.4C26.3,46.5,26.3,46.6,26.1,46.7z"/>
				</g>
				<g>
					<path class="st2" d="M22,46.6c-0.8,0-1.3,0-2.1,0c0-0.1,0-0.2,0-0.2c0-3.7,0-7.2,0-11c0-0.2,0-0.3-0.3-0.4
						c-2.3-1.3-4-2.9-5.2-4.8c-0.5-0.8-0.8-1.4-0.9-2.3c0-0.1,0-0.1,0-0.2v-0.1c0.8,0,1.5,0,2.3,0c0.1,0.4,0.3,0.7,0.4,1.1
						c0.9,1.8,2.4,3.4,4.4,4.7c0.4,0.3,0.8,0.5,1.1,0.7c0.2,0.1,0.3,0.2,0.3,0.3c0,1.9,0,4,0,5.9c0,2.1,0,4.1,0,6.2
						C22.1,46.5,22.1,46.6,22,46.6z"/>
				</g>
			</g>
		</g>
	</g>
</g>
<g class="st3">
	<path class="st0" d="M70.2,28.6c0-0.4-0.1-0.7-0.2-1.2c-4.8,0.7-5.6,0.9-6.1,1.1c-0.1-0.4-0.4-1.4-0.7-2c0.5-0.1,1-0.7,1.7-1.5
		c0.3-0.4,1-1.2,1.7-2.3c-2.1,0.3-2.6,0.4-2.9,0.5c-0.1-0.4-0.4-1.3-0.6-1.9c0.4-0.1,0.8-0.6,1.3-1.3c0.5-0.7,2.1-3.3,2.9-5.8
		l1.9,0.8c-0.9,2.1-2.2,4.2-3.4,5.9l2.1-0.2c0.6-1,1.2-2,1.6-3l1.8,1.1c-1.4,2.6-3.2,5.1-5,7.2l3.1-0.4c-0.2-0.7-0.4-1.4-0.7-2.1
		l1.6-0.4c0.6,1.5,1.2,3.6,1.5,4.8L70.2,28.6z M66,29.8c-0.2,2.1-0.6,4.4-1.1,5.9c-0.4-0.2-1.2-0.5-1.7-0.7c0.5-1.4,0.9-3.6,1.1-5.5
		L66,29.8z M68.3,29.4c0.3,1.5,0.6,3.5,0.6,4.8l-1.7,0.4c0-1.3-0.3-3.3-0.6-4.9L68.3,29.4z M70.5,28.8c0.4,1.2,0.9,2.7,1.1,3.8
		l-1.6,0.5c-0.2-1-0.7-2.6-1.1-3.8L70.5,28.8z M84.6,33.4v2H71.3v-2h5.6v-3.9h-4.4v-1.9h11.2v1.9h-4.5v3.9H84.6z M74.4,26.9
		c-0.5-1.2-1.6-3-2.8-4.6c0.9-1.4,1.9-3.1,2.4-4.3l1.9,0.5c-0.6,1.2-1.5,2.6-2.3,3.7c1,1.3,2,2.9,2.5,3.9L74.4,26.9z M84.3,17.4H72
		v-1.9h12.4V17.4z M79.9,18.5c-0.7,1.2-1.5,2.6-2.3,3.7c1,1.3,2.1,2.8,2.6,3.8l-1.7,0.8c-0.5-1.2-1.6-3-2.9-4.5c1-1.4,2-3.1,2.5-4.2
		L79.9,18.5z M82.6,26.9c-0.6-1.2-1.8-3-3.1-4.6c1-1.4,2-3.1,2.6-4.3l1.9,0.5c-0.7,1.2-1.6,2.6-2.4,3.7c1.1,1.3,2.2,2.8,2.7,3.8
		L82.6,26.9z"/>
	<path class="st0" d="M90,25.1c-0.7-0.8-2.3-1.9-3.5-2.7l1.1-1.3c1.2,0.7,2.8,1.8,3.6,2.5L90,25.1z M86.7,34.5
		c0.8-1.8,2.1-4.7,3-7.3l1.4,1.1c-0.8,2.4-1.8,5.1-2.8,7.3L86.7,34.5z M90.5,19c-0.7-0.9-2.2-2.2-3.4-3.1l1.1-1.2
		c1.2,0.8,2.7,2.1,3.4,3L90.5,19z M103.5,26h2v9.9h-2v-3.4h-8.1c-0.4,1.3-1.2,2.5-2.5,3.5c-0.4-0.4-1.1-0.9-1.6-1.1
		c2.3-1.6,2.6-4,2.6-5.7v-3h2v1.4h7.6V26z M95,21.4c-0.3,2.1-1.1,3.6-2.7,4.6c-0.1-0.3-0.6-0.9-0.9-1.1c1.2-0.8,1.8-1.9,2.1-3.5
		h-1.2V20h5.2v0.6c-0.1,2.9-0.2,4-0.5,4.5c-0.2,0.3-0.5,0.4-1,0.5c-0.3,0-0.8,0-1.3,0c0-0.4-0.2-1-0.4-1.4c0.5,0.1,0.8,0.1,1,0.1
		c0.2,0,0.3,0,0.4-0.2c0.1-0.2,0.2-0.9,0.3-2.7H95z M98.4,18.4h-6.1v-1.8h6.5c-0.1-0.7-0.3-1.5-0.5-2.1l2-0.3
		c0.3,0.7,0.5,1.7,0.6,2.4h6.9v1.8h-6.3l1.3,0.4c-0.7,0.8-1.5,1.6-2.3,2.2h0v4.8h-1.6v-4.8h0l0,0c0.8-0.7,1.7-1.8,2.3-2.6H98.4
		c0.5,0.6,0.9,1.3,1.1,1.8l-1.2,0.6c-0.2-0.5-0.6-1.3-1-1.9L98.4,18.4z M103.5,30.7v-1.6H96c0,0.5,0,1.1-0.1,1.6H103.5z M107.1,20.2
		c-0.4,0.2-0.9,0.4-1.4,0.7c0.5,1.6,1.2,3.1,2.3,3.8c-0.3,0.2-0.7,0.7-1,1.1c-1.2-1-2-2.7-2.4-4.5c-0.4,0.1-0.7,0.2-1.1,0.3v2.6
		l1.5-0.4c0,0.4,0.2,0.9,0.2,1.1c-2.2,0.8-2.7,1-3,1.2v0c-0.1-0.4-0.4-1-0.7-1.3c0.3-0.2,0.6-0.6,0.6-1.5v-2.6h0l0,0
		c1.4-0.4,2.9-0.9,3.7-1.5L107.1,20.2z"/>
	<path class="st0" d="M121,19.5c-0.5,1.3-1.1,2.7-1.6,3.8h3.1v2h-12.2v-2h3.3c-0.2-1-0.8-2.6-1.3-3.7l1.9-0.5
		c0.6,1.2,1.2,2.7,1.4,3.7l-1.7,0.5h3.5c0.6-1.2,1.2-3,1.5-4.3L121,19.5z M121.9,19h-11v-1.9h4.6c-0.2-0.7-0.6-1.6-0.9-2.2l2-0.6
		c0.4,0.9,0.9,2,1.2,2.8h4.1V19z M111.5,27.2h10v8.4h-2.2v-0.9h-5.8v1.1h-2.1V27.2z M113.5,29.2v3.6h5.8v-3.6H113.5z M131.3,16.4
		c-0.8,2.2-1.8,4.8-2.8,7c2,2.1,2.4,4,2.4,5.5c0,1.5-0.3,2.6-1.1,3.2c-0.4,0.3-0.9,0.4-1.5,0.5c-0.6,0.1-1.3,0.1-1.9,0
		c0-0.6-0.2-1.5-0.5-2.1c0.6,0.1,1.2,0.1,1.6,0.1c0.4,0,0.7-0.1,0.9-0.2c0.4-0.3,0.6-0.9,0.6-1.7c0-1.4-0.6-3-2.5-5
		c0.8-1.9,1.6-4.3,2.2-6.1h-3.2v18.3h-1.9V15.6h5.9l0.3-0.1L131.3,16.4z"/>
	<path class="st0" d="M153.6,18.5v11.2h-2.3v-1.3h-6.1v7.4H143v-7.4h-6.1v1.4h-2.2V18.5h8.2v-4.1h2.3v4.1H153.6z M143,26.3v-5.7
		h-6.1v5.7H143z M151.3,26.3v-5.7h-6.1v5.7H151.3z"/>
	<path class="st0" d="M162.8,20.5c-0.8,3.4-2.1,7.7-4.1,10.3c-0.5-0.4-1.5-0.9-2.1-1.1c2-2.4,3.2-6.5,3.7-9.5L162.8,20.5z
		 M168.8,14.7V33c0,1.5-0.4,2.1-1.3,2.5c-0.9,0.4-2.4,0.4-4.7,0.4c-0.1-0.6-0.5-1.6-0.9-2.3c1.6,0.1,3.3,0.1,3.8,0
		c0.5,0,0.7-0.2,0.7-0.6V14.7H168.8z M174.1,19.9c2,3.3,3.9,7.5,4.5,10.3l-2.4,0.9c-0.5-2.8-2.3-7.1-4.2-10.5L174.1,19.9z"/>
	<path class="st0" d="M192.7,15.1c-0.2,0.3-0.4,0.5-0.5,0.7c2.9,3.3,6.3,5.1,9.8,6.5c-0.5,0.5-1.1,1.2-1.4,1.9
		c-3.4-1.6-6.6-3.5-9.6-6.9c-2.6,2.9-6,5.3-9.5,6.9c-0.3-0.6-0.9-1.3-1.5-1.8c4.2-1.7,8.5-4.7,10.8-8.2L192.7,15.1z M192.3,33.2h8.6
		v2h-19.8v-2h2.8v-8.4h2.1v8.4h3.9V20.9h2.3V26h6.5v1.9h-6.5V33.2z"/>
	<path class="st0" d="M212.4,32.2c-1.6,1.3-4.6,2.5-7,3c-0.3-0.5-0.9-1.2-1.3-1.6c2.4-0.4,5.2-1.2,6.7-2.2L212.4,32.2z M224.6,28.6
		v1.8h-9.2v5.4h-2.1v-5.4h-9.1v-1.8h9.1v-1.4h-6.9v-1.6h6.9v-1.4h-8.1v-1.7h4.7c-0.2-0.6-0.6-1.4-1-2l1.4-0.3h-6v-1.7h3.5
		c-0.4-0.9-1.1-2.2-1.7-3.2l1.9-0.7c0.7,1,1.5,2.4,1.9,3.3l-1.2,0.5h2.6v-4h2v4h2.3v-4h2.1v4h2.6l-0.9-0.3c0.6-0.9,1.3-2.4,1.6-3.5
		l2.2,0.6c-0.6,1.1-1.3,2.3-1.9,3.2h3.3v1.7h-6.1l1.8,0.5c-0.5,0.7-1.1,1.3-1.5,1.9h5v1.7h-8.3v1.4h7.2v1.6h-7.2v1.4H224.6z
		 M211,20.1c0.5,0.7,0.9,1.5,1.1,2.1l-1.1,0.3h6.4l-0.8-0.3c0.4-0.6,1-1.5,1.3-2.1H211z M218.1,31.3c2.1,0.7,4.9,1.9,6.5,2.6
		l-1.5,1.3c-1.5-0.7-4.3-2-6.4-2.8L218.1,31.3z"/>
	<path class="st0" d="M238.5,26.9c-0.4,2.2-1.2,4-2.2,5.4c1.6,1.2,3.7,1.5,6.2,1.5c0.8,0,5.1,0,6.2,0c-0.3,0.4-0.6,1.3-0.7,1.8h-5.6
		c-3,0-5.4-0.4-7.2-1.9c-1.1,1.1-2.5,1.8-4,2.4c-0.2-0.4-0.6-1.1-1-1.5c1.5-0.4,2.8-1.2,3.8-2.2c-0.4-0.6-0.8-1.3-1.1-2.2
		c-0.4,0.5-0.9,1-1.3,1.4c-0.2-0.3-0.6-0.7-1-1c-0.3,1.9-0.9,3.9-1.9,5.4c-0.3-0.4-1.2-1.1-1.7-1.3c1.8-3.1,2-7.3,2-10.4v-5.6h7.4
		v-4.2h2.2v1.4h7.7v1.6h-7.7v1.3h7.6l0.4-0.1l1.5,0.4c-0.5,1.4-1.1,2.9-1.6,4l-1.8-0.5c0.3-0.5,0.6-1.3,0.8-2h-7v1.2l5.7-0.4
		l0.1,1.4l-5.8,0.4v0.3c0,0.6,0.1,0.9,1,0.9h5c0.8,0,2.1,0,2.6-0.2c0,0.6,0.1,1.1,0.2,1.6c-0.5,0.1-1.6,0.2-2.6,0.2h-5.4
		c-2.2,0-2.8-0.7-2.8-2.5V23l-4.3,0.3l-0.1-1.4l4.4-0.3v-1.3H231v3.9c0,1.6-0.1,3.7-0.4,5.7c1.4-1.3,2.5-3.1,3.1-5.1l1.7,0.4
		c-0.2,0.5-0.4,0.9-0.6,1.4h2.2l0.3,0L238.5,26.9z M233.9,28.6c0.3,1,0.7,1.8,1.2,2.4c0.6-0.8,1.1-1.8,1.4-2.9h-2.3L233.9,28.6z
		 M245,32.7c-1.3,0-1.7-0.4-1.7-1.7v-2.7h-1.9v0.2c0,1.5-0.4,3.4-2.2,4.8c-0.3-0.4-1-1-1.3-1.2c1.5-1.1,1.8-2.5,1.8-3.6v-1.8h5.3V31
		c0,0.4,0,0.5,0.3,0.5h0.7c0.2,0,0.3-0.3,0.4-1.6c0.3,0.3,0.9,0.4,1.3,0.5c-0.1,1.7-0.5,2.2-1.5,2.2H245z"/>
</g>
</svg>
